<svg width="400" height="500" viewBox="0 0 400 500" xmlns="http://www.w3.org/2000/svg">
  <!-- Capuche -->
  <path d="M200 50 C 150 50, 100 80, 100 120 L 100 140 C 100 160, 120 180, 140 180 L 260 180 C 280 180, 300 160, 300 140 L 300 120 C 300 80, 250 50, 200 50 Z" fill="white" stroke="#333" stroke-width="2"/>
  
  <!-- Corps de la capuche -->
  <rect x="100" y="180" width="200" height="280" fill="white" stroke="#333" stroke-width="2"/>
  
  <!-- Poche kangourou -->
  <path d="M120 220 L 280 220 L 280 320 L 120 320 Z" fill="white" stroke="#333" stroke-width="2"/>
  
  <!-- Manches -->
  <ellipse cx="80" cy="250" rx="40" ry="80" fill="white" stroke="#333" stroke-width="2"/>
  <ellipse cx="320" cy="250" rx="40" ry="80" fill="white" stroke="#333" stroke-width="2"/>
  
  <!-- Capuche (partie arrière) -->
  <path d="M200 50 C 250 50, 300 80, 300 120 L 300 140 C 300 160, 280 180, 260 180 L 140 180 C 120 180, 100 160, 100 140 L 100 120 C 100 80, 150 50, 200 50 Z" fill="white" stroke="#333" stroke-width="2"/>
</svg>