<svg width="300" height="400" viewBox="0 0 300 400" xmlns="http://www.w3.org/2000/svg">
  <!-- Définition des gradients pour un effet plus réaliste -->
  <defs>
    <linearGradient id="hoodieGradient" x1="0%" y1="0%" x2="0%" y2="100%">
      <stop offset="0%" style="stop-color:currentColor;stop-opacity:1" />
      <stop offset="100%" style="stop-color:currentColor;stop-opacity:0.8" />
    </linearGradient>
    <linearGradient id="shadowGradient" x1="0%" y1="0%" x2="0%" y2="100%">
      <stop offset="0%" style="stop-color:rgba(0,0,0,0.1);stop-opacity:0" />
      <stop offset="100%" style="stop-color:rgba(0,0,0,0.3);stop-opacity:1" />
    </linearGradient>
  </defs>
  
  <!-- Capuche avec forme plus réaliste -->
  <path d="M50 60 Q150 20 250 60 L250 100 Q200 80 150 100 Q100 80 50 100 Z" fill="url(#hoodieGradient)" stroke="rgba(0,0,0,0.2)" stroke-width="1"/>
  
  <!-- Cordons de la capuche -->
  <line x1="140" y1="80" x2="160" y2="80" stroke="rgba(0,0,0,0.6)" stroke-width="2"/>
  <line x1="140" y1="80" x2="130" y2="90" stroke="rgba(0,0,0,0.6)" stroke-width="1.5"/>
  <line x1="160" y1="80" x2="170" y2="90" stroke="rgba(0,0,0,0.6)" stroke-width="1.5"/>
  
  <!-- Corps de la capuche avec ombres -->
  <rect x="50" y="100" width="200" height="250" fill="url(#hoodieGradient)" stroke="rgba(0,0,0,0.1)" stroke-width="1"/>
  
  <!-- Manches avec forme plus naturelle -->
  <ellipse cx="35" cy="170" rx="35" ry="80" fill="url(#hoodieGradient)" stroke="rgba(0,0,0,0.1)" stroke-width="1"/>
  <ellipse cx="265" cy="170" rx="35" ry="80" fill="url(#hoodieGradient)" stroke="rgba(0,0,0,0.1)" stroke-width="1"/>
  
  <!-- Poignets avec texture -->
  <ellipse cx="35" cy="250" rx="30" ry="20" fill="rgba(0,0,0,0.15)" stroke="rgba(0,0,0,0.2)" stroke-width="1"/>
  <ellipse cx="265" cy="250" rx="30" ry="20" fill="rgba(0,0,0,0.15)" stroke="rgba(0,0,0,0.2)" stroke-width="1"/>
  
  <!-- Poche kangourou avec ombre -->
  <path d="M80 220 Q150 200 220 220 L220 300 Q150 290 80 300 Z" fill="url(#shadowGradient)" stroke="rgba(0,0,0,0.1)" stroke-width="1"/>
  
  <!-- Ourlet du bas avec texture -->
  <rect x="50" y="340" width="200" height="25" fill="rgba(0,0,0,0.1)" stroke="rgba(0,0,0,0.2)" stroke-width="1"/>
  
  <!-- Plis et détails de la capuche -->
  <path d="M50 100 Q100 120 150 100 Q200 120 250 100" fill="none" stroke="rgba(0,0,0,0.1)" stroke-width="1"/>
  <path d="M50 150 Q100 170 150 150 Q200 170 250 150" fill="none" stroke="rgba(0,0,0,0.05)" stroke-width="0.5"/>
  
  <!-- Zone pour le logo (au centre du corps) - plus visible -->
  <circle cx="150" cy="200" r="30" fill="none" stroke="rgba(255,255,255,0.3)" stroke-width="1" stroke-dasharray="5,5"/>
</svg>
