<svg width="300" height="400" viewBox="0 0 300 400" xmlns="http://www.w3.org/2000/svg">
  <!-- Définition des gradients pour un effet réaliste -->
  <defs>
    <linearGradient id="hoodieGradient" x1="0%" y1="0%" x2="0%" y2="100%">
      <stop offset="0%" style="stop-color:currentColor;stop-opacity:1" />
      <stop offset="50%" style="stop-color:currentColor;stop-opacity:0.9" />
      <stop offset="100%" style="stop-color:currentColor;stop-opacity:0.7" />
    </linearGradient>
    <linearGradient id="shadowGradient" x1="0%" y1="0%" x2="0%" y2="100%">
      <stop offset="0%" style="stop-color:rgba(0,0,0,0.1);stop-opacity:0" />
      <stop offset="100%" style="stop-color:rgba(0,0,0,0.4);stop-opacity:1" />
    </linearGradient>
    <filter id="dropShadow" x="-50%" y="-50%" width="200%" height="200%">
      <feDropShadow dx="2" dy="4" stdDeviation="3" flood-color="rgba(0,0,0,0.3)"/>
    </filter>
  </defs>
  
  <!-- Capuche avec forme réaliste -->
  <path d="M40 50 Q150 10 260 50 L260 90 Q220 70 150 90 Q80 70 40 90 Z" 
        fill="url(#hoodieGradient)" 
        stroke="rgba(0,0,0,0.15)" 
        stroke-width="1"
        filter="url(#dropShadow)"/>
  
  <!-- Cordons de la capuche -->
  <line x1="130" y1="70" x2="170" y2="70" stroke="rgba(0,0,0,0.7)" stroke-width="2.5"/>
  <line x1="130" y1="70" x2="120" y2="80" stroke="rgba(0,0,0,0.7)" stroke-width="2"/>
  <line x1="170" y1="70" x2="180" y2="80" stroke="rgba(0,0,0,0.7)" stroke-width="2"/>
  
  <!-- Corps principal de la capuche -->
  <rect x="40" y="90" width="220" height="280" 
        fill="url(#hoodieGradient)" 
        stroke="rgba(0,0,0,0.1)" 
        stroke-width="1"
        filter="url(#dropShadow)"/>
  
  <!-- Manches avec forme naturelle -->
  <ellipse cx="25" cy="160" rx="40" ry="90" 
           fill="url(#hoodieGradient)" 
           stroke="rgba(0,0,0,0.1)" 
           stroke-width="1"
           filter="url(#dropShadow)"/>
  <ellipse cx="275" cy="160" rx="40" ry="90" 
           fill="url(#hoodieGradient)" 
           stroke="rgba(0,0,0,0.1)" 
           stroke-width="1"
           filter="url(#dropShadow)"/>
  
  <!-- Poignets avec texture -->
  <ellipse cx="25" cy="250" rx="35" ry="25" 
           fill="rgba(0,0,0,0.2)" 
           stroke="rgba(0,0,0,0.3)" 
           stroke-width="1"/>
  <ellipse cx="275" cy="250" rx="35" ry="25" 
           fill="rgba(0,0,0,0.2)" 
           stroke="rgba(0,0,0,0.3)" 
           stroke-width="1"/>
  
  <!-- Poche kangourou avec ombre -->
  <path d="M70 250 Q150 230 230 250 L230 320 Q150 310 70 320 Z" 
        fill="url(#shadowGradient)" 
        stroke="rgba(0,0,0,0.2)" 
        stroke-width="1"/>
  
  <!-- Ourlet du bas avec texture -->
  <rect x="40" y="360" width="220" height="30" 
        fill="rgba(0,0,0,0.15)" 
        stroke="rgba(0,0,0,0.25)" 
        stroke-width="1"/>
  
  <!-- Plis et détails de couture -->
  <path d="M40 90 Q90 110 150 90 Q210 110 260 90" 
        fill="none" 
        stroke="rgba(0,0,0,0.1)" 
        stroke-width="1.5"/>
  <path d="M40 140 Q90 160 150 140 Q210 160 260 140" 
        fill="none" 
        stroke="rgba(0,0,0,0.08)" 
        stroke-width="1"/>
  <path d="M40 190 Q90 210 150 190 Q210 210 260 190" 
        fill="none" 
        stroke="rgba(0,0,0,0.06)" 
        stroke-width="0.8"/>
  
  <!-- Zone pour le logo (au centre du corps) -->
  <circle cx="150" cy="200" r="35" 
          fill="none" 
          stroke="rgba(255,255,255,0.4)" 
          stroke-width="1" 
          stroke-dasharray="8,4"/>
</svg>










