<svg width="400" height="500" viewBox="0 0 400 500" xmlns="http://www.w3.org/2000/svg">
  <!-- Fond transparent -->
  <rect width="400" height="500" fill="transparent"/>
  
  <!-- Capuche avec ombres et détails -->
  <defs>
    <linearGradient id="hoodieGradient" x1="0%" y1="0%" x2="100%" y2="100%">
      <stop offset="0%" style="stop-color:#ffffff;stop-opacity:1" />
      <stop offset="100%" style="stop-color:#f8f8f8;stop-opacity:1" />
    </linearGradient>
    <filter id="shadow" x="-20%" y="-20%" width="140%" height="140%">
      <feDropShadow dx="2" dy="4" stdDeviation="3" flood-color="#000000" flood-opacity="0.3"/>
    </filter>
  </defs>
  
  <!-- Corps principal de la capuche -->
  <path d="M200 50 C 150 50, 100 80, 100 120 L 100 140 C 100 160, 120 180, 140 180 L 260 180 C 280 180, 300 160, 300 140 L 300 120 C 300 80, 250 50, 200 50 Z" 
        fill="url(#hoodieGradient)" 
        stroke="#e0e0e0" 
        stroke-width="1"
        filter="url(#shadow)"/>
  
  <!-- Corps de la capuche -->
  <rect x="100" y="180" width="200" height="280" 
        fill="url(#hoodieGradient)" 
        stroke="#e0e0e0" 
        stroke-width="1"
        filter="url(#shadow)"/>
  
  <!-- Poche kangourou avec ombre -->
  <path d="M120 220 L 280 220 L 280 320 L 120 320 Z" 
        fill="url(#hoodieGradient)" 
        stroke="#e0e0e0" 
        stroke-width="1"
        filter="url(#shadow)"/>
  
  <!-- Manches avec ombres -->
  <ellipse cx="80" cy="250" rx="40" ry="80" 
           fill="url(#hoodieGradient)" 
           stroke="#e0e0e0" 
           stroke-width="1"
           filter="url(#shadow)"/>
  <ellipse cx="320" cy="250" rx="40" ry="80" 
           fill="url(#hoodieGradient)" 
           stroke="#e0e0e0" 
           stroke-width="1"
           filter="url(#shadow)"/>
  
  <!-- Détails de la capuche -->
  <path d="M200 50 C 250 50, 300 80, 300 120 L 300 140 C 300 160, 280 180, 260 180 L 140 180 C 120 180, 100 160, 100 140 L 100 120 C 100 80, 150 50, 200 50 Z" 
        fill="url(#hoodieGradient)" 
        stroke="#e0e0e0" 
        stroke-width="1"
        filter="url(#shadow)"/>
  
  <!-- Cordons de la capuche -->
  <line x1="140" y1="120" x2="180" y2="120" stroke="#333" stroke-width="3" stroke-linecap="round"/>
  <line x1="220" y1="120" x2="260" y2="120" stroke="#333" stroke-width="3" stroke-linecap="round"/>
  
  <!-- Embouts des cordons -->
  <circle cx="180" cy="120" r="4" fill="#333"/>
  <circle cx="260" cy="120" r="4" fill="#333"/>
  
  <!-- Plis et détails de texture -->
  <path d="M120 200 Q 200 190, 280 200" stroke="#d0d0d0" stroke-width="1" fill="none" opacity="0.5"/>
  <path d="M120 280 Q 200 270, 280 280" stroke="#d0d0d0" stroke-width="1" fill="none" opacity="0.5"/>
</svg>









